# xmcd CD database file
#
# Track frame offsets:
#	150
#	17377
#	40599
#	58214
#	84883
#	101989
#	127468
#	148500
#	170196
#	186463
#	209454
#
# Disc length: 3304 seconds
#
# Revision: 0
# Processed by: cddbd v1.4PL0 Copyright (c) Steve Scherf et al.
# Submitted via: CDex 1.50
#
DISCID=a40ce60b
DTITLE=Dave Matthews Band - Busted Stuff
DYEAR=2002
DGENRE=Blues
TTITLE0=Busted Stuff 
TTITLE1=Grey Street 
TTITLE2=Where Are You Going 
TTITLE3=You Never Know 
TTITLE4=Captain 
TTITLE5=Raven 
TTITLE6=Grace Is Gone 
TTITLE7=Kit Kat Jam 
TTITLE8=Digging A Ditch 
TTITLE9=Big Eyed Fish 
TTITLE10=Bartender
EXTD=YEAR: 2002
EXTT0=
EXTT1=
EXTT2=
EXTT3=
EXTT4=
EXTT5=
EXTT6=
EXTT7=
EXTT8=
EXTT9=
EXTT10=
PLAYORDER=
